<svg xmlns="http://www.w3.org/2000/svg" viewBox="0 0 55.5 60"><path fill="rgb(255,255,255)" d="M52.3 12.2h-7c0.5-0.7 0.8-1.4 1.1-2.2 0.6-2 0.4-4.1-0.6-5.9 -1-1.8-2.6-3.1-4.6-3.7 -2-0.6-4.1-0.4-5.9 0.6 -3.6 2-6.2 6.1-7.6 9 -1.4-2.9-4-7.1-7.6-9 -3.8-2-8.5-0.6-10.5 3.1 -1.4 2.7-1.2 5.8 0.5 8.1h-7c-1.7 0-3.1 1.4-3.1 3.1v9.4c0 1.7 1.4 3.1 3.1 3.1H4v26.1c0 3.3 2.7 6 6 6h35.5c3.3 0 6-2.7 6-6V27.8h0.8c1.7 0 3.1-1.4 3.1-3.1v-9.4C55.5 13.6 54.1 12.2 52.3 12.2zM36.5 3c1.3-0.7 2.7-0.8 4.1-0.4C41.9 3 43 3.9 43.7 5.2c0.7 1.3 0.8 2.7 0.4 4.1 -0.4 1.2-1.1 2.2-2.2 2.9H29.4C30.5 9.6 33 5 36.5 3zM11.7 5.2C13.2 2.6 16.4 1.6 19 3c3.5 1.9 6 6.6 7.1 9.1H13.5C11.2 10.7 10.4 7.6 11.7 5.2zM26.5 27.8v13.7H6.4V27.8H26.5zM6.4 53.9v-10h20.2v13.7H10C8 57.6 6.4 55.9 6.4 53.9zM45.5 57.6H28.9V43.9h20.2v10C49.1 55.9 47.5 57.6 45.5 57.6zM49.1 41.5H28.9V27.8h20.2V41.5zM53.1 24.7c0 0.4-0.3 0.7-0.7 0.7h-2c0 0 0 0 0 0s0 0 0 0H27.7c0 0 0 0 0 0s0 0 0 0H5.2c0 0 0 0 0 0s0 0 0 0h-2c-0.4 0-0.7-0.3-0.7-0.7v-9.4c0-0.4 0.3-0.7 0.7-0.7h49.2c0.4 0 0.7 0.3 0.7 0.7V24.7z"/></svg>
